<svg width="1440" height="1025" viewBox="0 0 1440 1025" fill="none" xmlns="http://www.w3.org/2000/svg">
<path d="M0 256.305V512.305H90H180L0 256.305Z" fill="#38B593"/>
<path d="M360 1024.31H540L360 768.305V1024.31Z" fill="#38B593"/>
<path d="M540 1024.31H720L540 768.305L399.014 567.791L360 512.305L180 256.305L0 0.305054V256.305L180 512.305L360 768.305L540 1024.31Z" fill="#3AB397"/>
<path fill-rule="evenodd" clip-rule="evenodd" d="M1080 0.305054H1260L1140 85.6384L1080 0.305054ZM1332 358.705L1440 512.305V384.305L1332 358.705Z" fill="#38A0A7"/>
<path d="M1440 0.305054H1260L1140 85.6384L1332 358.705L1440 384.305V256.305V0.305054Z" fill="#4BA8B0"/>
<path d="M1332 358.705L1140 85.6384L1020 170.972L1116 307.505L1332 358.705Z" fill="#4BA8B0"/>
<path d="M900 256.305L1116 307.505L1020 170.972L900 256.305Z" fill="#4BA8B0"/>
<path fill-rule="evenodd" clip-rule="evenodd" d="M1080 0.305054H900L1020 170.972L1140 85.6384L1080 0.305054ZM1299.01 567.791L1116 307.505L1332 358.705L1440 512.305V768.305L1336.58 621.222L1378.5 579.305L1333 533.805L1299.01 567.791Z" fill="#38A2A3"/>
<path fill-rule="evenodd" clip-rule="evenodd" d="M900 0.305054H720L900 256.305L1440 1024.31V768.305L1336.58 621.222L1333 624.805L1287.5 579.305L1299.01 567.791L1116 307.505L900 256.305L1020 170.972L900 0.305054Z" fill="#38A4A0"/>
<path fill-rule="evenodd" clip-rule="evenodd" d="M720 0.305054L540.5 0L839.328 425L911.5 425.305V468.805C900.045 469.054 885.668 469.028 870.436 469.243L1177.72 906.264L1260 850.805L1260.5 1024L1440 1024.31L900 256.305L720 0.305054Z" fill="#38A69B"/>
<path d="M1378.5 579.305L1333 533.805L1299.01 567.791L1336.58 621.222L1378.5 579.305Z" fill="#4BA8B0"/>
<path d="M911.5 468.805V425.305L839.328 425L870.436 469.243C885.668 469.028 900.045 469.054 911.5 468.805Z" fill="#4BA8B0"/>
<path d="M797 425V468.5C797 469.902 834.694 469.748 870.436 469.243L839.328 425H797Z" fill="#4BA8B0"/>
<path d="M1287.5 579.305L1333 624.805L1336.58 621.222L1299.01 567.791L1287.5 579.305Z" fill="#4BA8B0"/>
<path d="M1260.5 1024L1260 850.805L1177.72 906.264L1260.5 1024Z" fill="#4BA8B0"/>
<path d="M1116.5 947.5L1260.5 1024L1177.72 906.264L1116.5 947.5Z" fill="#4BA8B0"/>
<path d="M951 748.055C951 737.147 959.842 728.305 970.75 728.305H971.25C982.158 728.305 991 737.147 991 748.055V748.055C991 758.963 982.158 767.805 971.25 767.805H970.75C959.842 767.805 951 758.963 951 748.055V748.055Z" fill="#4BA8B0"/>
<path fill-rule="evenodd" clip-rule="evenodd" d="M180 686.621C283.316 744.652 360 857.213 360 1024.31V768.305L180 512.305V686.621Z" fill="#38B593"/>
<path fill-rule="evenodd" clip-rule="evenodd" d="M99.355 653.61L0 512.305H90H180V686.621C154.491 672.293 127.358 661.289 99.355 653.61Z" fill="#38B593"/>
<path fill-rule="evenodd" clip-rule="evenodd" d="M0 640.305V512.305L99.355 653.61C67.0106 644.74 33.5053 640.305 0 640.305Z" fill="#3AB790"/>
<path d="M0 1024.31H180V768.305L99.355 653.61C67.0106 644.74 33.5053 640.305 0 640.305V768.305V1024.31Z" fill="#4CBF9A"/>
<path d="M180 768.305V686.621C154.491 672.293 127.358 661.289 99.355 653.61L180 768.305Z" fill="#4CBF9A"/>
<path d="M180 768.305L360 1024.31C360 857.213 283.316 744.652 180 686.621V768.305Z" fill="#4CBF9A"/>
<path d="M180 1024.31H360L180 768.305V1024.31Z" fill="#4CBF9A"/>
<path fill-rule="evenodd" clip-rule="evenodd" d="M540.5 0H360.5L458.47 139.335L505 92.8051L567.5 155.305L510.075 212.73L1080.5 1024H1260.5L1116.5 947.5L1177.72 906.264L870.436 469.243C834.694 469.748 797 469.902 797 468.5V425H839.328L540.5 0ZM951 748.055C951 737.147 959.842 728.305 970.75 728.305H971.25C982.158 728.305 991 737.147 991 748.055V748.055C991 758.963 982.158 767.805 971.25 767.805H970.75C959.842 767.805 951 758.963 951 748.055V748.055Z" fill="#38A899"/>
<path d="M567.5 155.305L505 92.8051L458.47 139.335L510.075 212.73L567.5 155.305Z" fill="#4CBF9A"/>
<path d="M442.5 155.305L505 217.805L510.075 212.73L458.47 139.335L442.5 155.305Z" fill="#4CBF9A"/>
<path d="M601.5 711.805L570 743.305L655 850.805C666 839.138 688.2 816.005 689 816.805C689.8 817.605 631 747.138 601.5 711.805Z" fill="#4CBF9A"/>
<path fill-rule="evenodd" clip-rule="evenodd" d="M360.5 0L180 0.305054L476.815 422.442L510.075 360.305L643.5 512.305L554.243 532.562L900 1024.31L1080.5 1024L510.075 212.73L505 217.805L442.5 155.305L458.47 139.335L360.5 0Z" fill="#3AAF9F"/>
<path fill-rule="evenodd" clip-rule="evenodd" d="M180 0.305054H0L180 256.305L360 512.305L399.014 567.791L540 768.305L720 1024.31H900L554.243 532.562L399.014 567.791L476.815 422.442L180 0.305054ZM601.5 711.805L570 743.305L655 850.805C666 839.138 688.2 816.005 689 816.805C689.8 817.605 631 747.138 601.5 711.805Z" fill="#3AB19B"/>
<path d="M643.5 512.305L510.075 360.305L476.815 422.442L554.243 532.562L643.5 512.305Z" fill="#4CBF9A"/>
<path d="M399.014 567.791L554.243 532.562L476.815 422.442L399.014 567.791Z" fill="#4CBF9A"/>
</svg>
