<svg width="385" height="169" viewBox="0 0 385 169" fill="none" xmlns="http://www.w3.org/2000/svg">
<path d="M60.1277 114.748H148.511H184.149V165.126H8.80856C8.80856 165.126 0.255371 165.126 0.255371 156.73C0.255371 148.333 8.80856 148.333 8.80856 148.333H74.383C74.383 148.333 82.9362 148.333 82.9362 139.937C82.9362 131.541 74.383 131.541 74.383 131.541H60.1277C60.1277 131.541 51.5745 131.541 51.5745 123.145C51.5745 114.748 60.1277 114.748 60.1277 114.748Z" fill="#F2FFDE"/>
<path d="M316.723 72.7673H191.277V123.145H305.319C305.319 123.145 313.872 123.145 313.872 114.748C313.872 106.352 305.319 106.352 305.319 106.352H273.958C273.958 106.352 265.404 106.352 265.404 97.956C265.404 89.5598 273.958 89.5598 273.958 89.5598H316.723C316.723 89.5598 325.277 89.5598 325.277 81.1635C325.277 72.7673 316.723 72.7673 316.723 72.7673Z" fill="#F2FFDE"/>
<path d="M128.553 69.9686H162.766V86.761H128.553C128.553 86.761 120 86.761 120 78.3648C120 69.9686 128.553 69.9686 128.553 69.9686Z" fill="#F2FFDE"/>
<path d="M299.617 50.3774H224.064H216.936C216.936 50.3774 208.383 50.3774 208.383 41.9811C208.383 33.5849 216.936 33.5849 216.936 33.5849H225.489C225.489 33.5849 234.043 33.5849 234.043 25.1887C234.043 16.7925 225.489 16.7925 225.489 16.7925H216.936C216.936 16.7925 208.383 16.7925 208.383 8.39623C208.383 0 216.936 0 216.936 0H276.809C276.809 0 285.362 0 285.362 8.39623C285.362 16.7925 276.809 16.7925 276.809 16.7925H259.702C259.702 16.7925 251.149 16.7925 251.149 25.1887C251.149 33.5849 259.702 33.5849 259.702 33.5849H299.617C299.617 33.5849 308.17 33.5849 308.17 41.9811C308.17 50.3774 299.617 50.3774 299.617 50.3774Z" fill="#F2FFDE"/>
<path d="M288.213 19.5912C288.213 11.195 296.766 11.195 296.766 11.195H313.872C313.872 11.195 322.426 11.195 322.426 19.5912C322.426 27.9874 313.872 27.9874 313.872 27.9874H296.766C296.766 27.9874 288.213 27.9874 288.213 19.5912Z" fill="#F2FFDE"/>
<path d="M367.894 81.1635H356.787C355.13 81.1635 353.787 82.5067 353.787 84.1635V94.956C353.787 96.6128 355.13 97.956 356.787 97.956H367.894C369.551 97.956 370.894 96.6128 370.894 94.956V84.1635C370.894 82.5067 369.551 81.1635 367.894 81.1635Z" fill="#F2FFDE"/>
<ellipse cx="185.574" cy="111.95" rx="57.0213" ry="55.9748" fill="#E9FFD1"/>
<path d="M128.553 111.95C128.553 91.2311 140.02 73.1416 157.064 63.4633M137.034 141.336C147.08 157.293 165.063 167.925 185.575 167.925C217.066 167.925 242.596 142.864 242.596 111.95C242.596 81.0356 217.066 55.9749 185.575 55.9749C181.163 55.9749 176.868 56.4666 172.745 57.3974" stroke="#72AA3F" stroke-width="2" stroke-linecap="round"/>
<path d="M162.766 107.751L182.723 127.343L212.66 95.1572M375.17 53.176V69.9685M366.617 61.5723H383.723" stroke="#72AA3F" stroke-width="2" stroke-linecap="round"/>
<ellipse cx="139.957" cy="39.1823" rx="11.4043" ry="11.195" fill="#E9FFD1" stroke="#72AA3F" stroke-width="2"/>
</svg>
