<svg width="385" height="172" viewBox="0 0 385 172" fill="none" xmlns="http://www.w3.org/2000/svg">
<path d="M60.1277 115.006H148.511H184.149V165.497H8.80856C8.80856 165.497 0.255371 165.497 0.255371 157.082C0.255371 148.667 8.80856 148.667 8.80856 148.667H74.383C74.383 148.667 82.9362 148.667 82.9362 140.252C82.9362 131.837 74.383 131.837 74.383 131.837H60.1277C60.1277 131.837 51.5745 131.837 51.5745 123.421C51.5745 115.006 60.1277 115.006 60.1277 115.006Z" fill="#FEF2F0"/>
<path d="M316.723 72.9308H191.277V123.421H305.319C305.319 123.421 313.872 123.421 313.872 115.006C313.872 106.591 305.319 106.591 305.319 106.591H273.958C273.958 106.591 265.404 106.591 265.404 98.1761C265.404 89.761 273.958 89.761 273.958 89.761H316.723C316.723 89.761 325.277 89.761 325.277 81.3459C325.277 72.9308 316.723 72.9308 316.723 72.9308Z" fill="#FEF2F0"/>
<path d="M128.553 70.1258H184.149V86.956H128.553C128.553 86.956 120 86.956 120 78.5409C120 70.1258 128.553 70.1258 128.553 70.1258Z" fill="#FEF2F0"/>
<path d="M299.617 50.4906H224.064H216.936C216.936 50.4906 208.383 50.4906 208.383 42.0755C208.383 33.6604 216.936 33.6604 216.936 33.6604H225.489C225.489 33.6604 234.043 33.6604 234.043 25.2453C234.043 16.8302 225.489 16.8302 225.489 16.8302H216.936C216.936 16.8302 208.383 16.8302 208.383 8.4151C208.383 0 216.936 0 216.936 0H276.809C276.809 0 285.362 0 285.362 8.4151C285.362 16.8302 276.809 16.8302 276.809 16.8302H259.702C259.702 16.8302 251.149 16.8302 251.149 25.2453C251.149 33.6604 259.702 33.6604 259.702 33.6604H299.617C299.617 33.6604 308.17 33.6604 308.17 42.0755C308.17 50.4906 299.617 50.4906 299.617 50.4906Z" fill="#FEF2F0"/>
<path d="M288.213 19.6352C288.213 11.2201 296.766 11.2201 296.766 11.2201H313.872C313.872 11.2201 322.426 11.2201 322.426 19.6352C322.426 28.0503 313.872 28.0503 313.872 28.0503H296.766C296.766 28.0503 288.213 28.0503 288.213 19.6352Z" fill="#FEF2F0"/>
<path d="M367.894 81.3459H356.787C355.13 81.3459 353.787 82.6891 353.787 84.3459V95.1761C353.787 96.833 355.13 98.1761 356.787 98.1761H367.894C369.551 98.1761 370.894 96.833 370.894 95.1761V84.3459C370.894 82.6891 369.551 81.3459 367.894 81.3459Z" fill="#FEF2F0"/>
<ellipse cx="139.957" cy="39.2704" rx="11.4043" ry="11.2201" fill="#FFECC1" stroke="#E7C04B" stroke-width="1.5"/>
<path d="M124.481 171.107H246.668C247.414 171.107 247.898 170.319 247.559 169.654L237.963 150.77L227.628 130.434L194.84 65.9183L191.277 58.9057L186.466 49.4397C186.095 48.7105 185.054 48.7105 184.683 49.4397L154.213 109.396L134.255 148.667L123.59 169.654C123.251 170.319 123.735 171.107 124.481 171.107Z" fill="#FFECC1"/>
<path d="M191.277 58.9057L186.466 49.4397C186.095 48.7105 185.054 48.7105 184.683 49.4397L154.213 109.396M194.84 65.9183L227.628 130.434M237.963 150.77L247.559 169.654C247.898 170.319 247.414 171.107 246.668 171.107H124.481C123.735 171.107 123.251 170.319 123.59 169.654L134.255 148.667" stroke="#E7C04B" stroke-width="1.5"/>
<path d="M193.774 101.861C192.488 110.047 188 137.446 185.575 137.446C183.149 137.446 178.661 110.047 177.375 101.861C177.185 100.653 178.122 99.5784 179.345 99.5784H185.575H191.804C193.027 99.5784 193.964 100.653 193.774 101.861Z" fill="#E7C04B"/>
<path d="M189.277 145.861H181.872C180.768 145.861 179.872 146.757 179.872 147.861V155.082C179.872 156.186 180.768 157.082 181.872 157.082H189.277C190.381 157.082 191.277 156.186 191.277 155.082V147.861C191.277 146.757 190.381 145.861 189.277 145.861Z" fill="#E7C04B"/>
<path d="M375.17 53.2954V70.1256M366.617 61.7105H383.723M185.575 137.446C188 137.446 192.488 110.047 193.775 101.861C193.964 100.653 193.027 99.5784 191.804 99.5784H185.575H179.345C178.122 99.5784 177.185 100.653 177.375 101.861C178.661 110.047 183.149 137.446 185.575 137.446ZM181.872 157.082H189.277C190.381 157.082 191.277 156.186 191.277 155.082V147.861C191.277 146.757 190.381 145.861 189.277 145.861H181.872C180.768 145.861 179.872 146.757 179.872 147.861V155.082C179.872 156.186 180.768 157.082 181.872 157.082Z" stroke="#E7C04B" stroke-width="1.5" stroke-linecap="round"/>
</svg>
